HIERARCHY
ROOT Hips
{
	OFFSET 42.664326 -0.343277 -6.840933
	CHANNELS 6 Xposition Yposition Zposition Zrotation Yrotation Xrotation
	JOINT LHipJoint
	{
		OFFSET -1.823915 -10.507826 -31.279638
		CHANNELS 3 Zrotation Yrotation Xrotation
		JOINT LeftUpLeg
		{
			OFFSET -34.466259 -79.846329 -106.766434
			CHANNELS 3 Zrotation Yrotation Xrotation
			JOINT LeftLeg
			{
				OFFSET -99.490761 -105.843498 -109.084686
				CHANNELS 3 Zrotation Yrotation Xrotation
				JOINT LeftFoot
				{
					OFFSET -99.754295 -99.535393 -99.301910
					CHANNELS 3 Zrotation Yrotation Xrotation
					JOINT LeftToeBase
					{
						OFFSET -110.677490 -106.912407 -101.074661
						CHANNELS 3 Zrotation Yrotation Xrotation
						End Site
						{
							OFFSET 0.000000 0.000000 0.000000
						}
					}
				}
			}
		}
	}
	JOINT RHipJoint
	{
		OFFSET -103.660500 -92.608482 -73.401917
		CHANNELS 3 Zrotation Yrotation Xrotation
		JOINT RightUpLeg
		{
			OFFSET -112.746902 -110.897934 -133.913025
			CHANNELS 3 Zrotation Yrotation Xrotation
			JOINT RightLeg
			{
				OFFSET -142.513702 -167.295990 -164.544327
				CHANNELS 3 Zrotation Yrotation Xrotation
				JOINT RightFoot
				{
					OFFSET -205.936508 -223.920654 -270.033295
					CHANNELS 3 Zrotation Yrotation Xrotation
					JOINT RightToeBase
					{
						OFFSET -281.329742 -293.913330 -300.749664
						CHANNELS 3 Zrotation Yrotation Xrotation
						End Site
						{
							OFFSET 0.000000 0.000000 0.000000
						}
					}
				}
			}
		}
	}
	JOINT LowerBack
	{
		OFFSET -303.117004 -291.686310 -276.972382
		CHANNELS 3 Zrotation Yrotation Xrotation
		JOINT Spine
		{
			OFFSET -283.086609 -288.901733 -281.686890
			CHANNELS 3 Zrotation Yrotation Xrotation
			JOINT Spine1
			{
				OFFSET -288.507050 -292.892517 -300.022522
				CHANNELS 3 Zrotation Yrotation Xrotation
				JOINT Neck
				{
					OFFSET -310.626190 -305.347504 -324.993073
					CHANNELS 3 Zrotation Yrotation Xrotation
					JOINT Neck1
					{
						OFFSET -256.954437 -259.735687 -248.221283
						CHANNELS 3 Zrotation Yrotation Xrotation
						JOINT Head
						{
							OFFSET -259.286102 -218.274033 -222.601059
							CHANNELS 3 Zrotation Yrotation Xrotation
							End Site
							{
								OFFSET 0.000000 0.000000 0.000000
							}
						}
					}
				}
				JOINT LeftShoulder
				{
					OFFSET -174.976410 -192.191132 -199.389954
					CHANNELS 3 Zrotation Yrotation Xrotation
					JOINT LeftArm
					{
						OFFSET -178.555527 -196.118149 -181.607910
						CHANNELS 3 Zrotation Yrotation Xrotation
						JOINT LeftForeArm
						{
							OFFSET -186.453827 -183.006271 -184.170517
							CHANNELS 3 Zrotation Yrotation Xrotation
							JOINT LeftHand
							{
								OFFSET -174.852936 -159.621902 -159.497787
								CHANNELS 3 Zrotation Yrotation Xrotation
								JOINT LeftFingerBase
								{
									OFFSET -153.559631 -162.759811 -113.838593
									CHANNELS 3 Zrotation Yrotation Xrotation
									JOINT LeftHandIndex1
									{
										OFFSET -115.527519 -84.364761 -75.331978
										CHANNELS 3 Zrotation Yrotation Xrotation
										End Site
										{
											OFFSET 0.000000 0.000000 0.000000
										}
									}
								}
								JOINT LThumb
								{
									OFFSET -36.814529 -31.129807 -19.938084
									CHANNELS 3 Zrotation Yrotation Xrotation
									End Site
									{
										OFFSET 0.000000 0.000000 0.000000
									}
								}
							}
						}
					}
				}
				JOINT RightShoulder
				{
					OFFSET -21.155352 -21.089985 -17.870403
					CHANNELS 3 Zrotation Yrotation Xrotation
					JOINT RightArm
					{
						OFFSET -22.844982 10.518131 -13.748478
						CHANNELS 3 Zrotation Yrotation Xrotation
						JOINT RightForeArm
						{
							OFFSET -19.074642 -11.703394 -10.365299
							CHANNELS 3 Zrotation Yrotation Xrotation
							JOINT RightHand
							{
								OFFSET -4.930409 2.726578 -16.030897
								CHANNELS 3 Zrotation Yrotation Xrotation
								JOINT RightFingerBase
								{
									OFFSET -5.383778 10.001835 8.070136
									CHANNELS 3 Zrotation Yrotation Xrotation
									JOINT RightHandIndex1
									{
										OFFSET 13.769735 8.612186 1.023412
										CHANNELS 3 Zrotation Yrotation Xrotation
										End Site
										{
											OFFSET 0.000000 0.000000 0.000000
										}
									}
								}
								JOINT RThumb
								{
									OFFSET -0.113921 -25.947956 -3.442407
									CHANNELS 3 Zrotation Yrotation Xrotation
									End Site
									{
										OFFSET 6.451529 0.498462 61.021782
									}
								}
							}
						}
					}
				}
			}
		}
	}
}
MOTION
Frames: 7
Frame Time: 0.008333
23.370663 1.753149 -713.589722 -124.157173 -141.052658 -54.516861 -22.007063 -50.561432 -132.293411 -295.550415 -305.600220 -450.418182 -76.857513 -48.993889 -181.260727 -58.479019 -243.203720 -251.802322 -19.568569 17.163071 164.853271 -123.357857 -24.194109 -24.960997 -68.918571 -70.600334 141.808868 8.824958 -2.280267 -178.197128 -29.653540 -2.288162 -161.846191 -27.030329 -54.230118 -217.317291 -55.356102 -33.647129 -73.524902 -55.981525 -91.913071 -66.363297 -93.174469 -78.306351 -266.254456 -97.761688 -114.926521 -166.652802 -81.933403 -158.341461 -278.629211 -116.232101 -112.059631 -239.261734 -176.017059 -239.403656 -63.963409 -469.888245 -647.581787 -945.327332 -565.352539 -280.139404 -225.534927 -6.626192 -42.952614 -119.302299 -202.518158 -351.123566 -303.031464 -7.125000 0.000000 0.000000 -297.056244 -353.503479 -441.836304 -70.006462 45.538170 7.886413 78.048035 88.422058 245.576477 78.674057 101.913544 -64.099464 -1.859312 6.650150 60.910873 341.033020 158.882263 103.386757 7.125000 0.000000 0.000000 -338.199310 -1012.406921 -1787.514648
94.816238 24.531240 174.610504 68.527245 194.401672 287.367279 311.207855 128.001328 112.539482 312.641602 287.757721 353.839386 110.915855 127.810379 367.489899 42.307560 145.190201 -11.442955 -2.471171 45.885227 251.434250 -137.617554 -23.356327 -11.093683 -14.283663 -7.626763 258.928528 53.378441 81.735947 225.049759 77.421555 443.480560 476.231476 51.221439 231.531036 667.863953 151.105453 167.784134 237.342606 63.064011 144.132446 166.635605 97.145515 14.136808 -127.136169 60.558411 67.842964 286.624542 106.513268 220.689804 200.497314 81.996025 19.135750 -10.064213 78.477394 -15.557957 12.786351 46.088974 307.634064 542.840332 469.794647 317.694153 346.014038 23.698042 21.678844 804.098511 201.234421 264.013336 145.463425 -7.125000 0.000000 0.000000 963.475830 777.437561 1032.815674 82.158989 150.164673 30.872263 174.562531 113.379402 301.745056 235.897385 287.718628 227.700974 38.970573 56.515060 793.576294 2414.855225 1126.803955 2389.723877 7.125000 0.000000 0.000000 5824.562500 2505.167480 8788.046875
50.517025 6.657033 -517.974365 -88.687889 -93.241692 -3.486864 106.776596 37.110142 -36.458759 -48.592018 -51.171692 -15.000382 9.455416 20.708961 103.159592 21.472330 126.472626 99.848595 3.980704 24.235733 341.995697 -89.460220 -13.136844 -11.544614 59.527596 120.950516 159.667297 -105.880852 -12.254366 303.949890 21.243540 -37.782688 150.955383 69.769508 235.287445 321.946045 143.124649 215.272659 281.942078 66.671272 132.315903 128.438568 171.388824 189.409302 -100.305183 -276.256836 -197.329102 -31.970959 -47.519283 -164.323959 -212.911819 -54.168510 -91.121735 -268.054382 -140.550034 -230.349258 -48.714134 -298.580078 -352.246216 -620.911621 -381.865570 -185.388672 -120.323746 -0.364553 -39.344135 -5.558319 -221.814468 -308.328522 -277.432953 -7.125000 0.000000 0.000000 -361.683319 -330.042511 -218.131104 -23.362661 98.413422 15.919216 83.116539 55.853203 -66.299774 -145.497589 46.402153 97.365707 9.875391 1.691474 -14.020533 -287.514832 -93.884659 -102.382126 7.125000 0.000000 0.000000 -805.720276 -1578.205078 -1075.550415
67.284454 9.592008 -360.247009 -31.252773 22.421497 114.598679 220.583542 101.560196 42.505283 185.544922 205.294083 505.961548 145.070221 181.279358 630.336487 128.082245 573.560913 623.941528 55.624447 191.615128 885.950562 74.396370 65.263809 118.156250 493.483063 612.014526 997.865845 64.834396 201.635468 1177.497192 247.110809 581.435608 963.678406 167.324860 577.817932 1009.065796 274.170563 300.616852 402.446533 102.290291 189.605774 177.814957 253.329880 383.715546 323.054626 99.167992 95.966774 401.829315 125.195122 205.265274 306.992065 222.385757 111.799858 95.990585 220.973877 30.321154 31.716219 133.523270 383.903778 334.797577 280.151337 167.576797 185.147079 13.535944 -6.832496 557.247009 50.814220 171.215912 65.436707 -7.125000 0.000000 0.000000 -95.912224 -199.135452 -80.734901 -4.034322 121.953186 21.317219 116.441559 143.667206 64.980820 -230.552841 -37.573418 47.665634 3.994668 -6.015390 -124.853523 -713.932617 -247.102386 92.745232 7.125000 0.000000 0.000000 1660.500977 -429.998962 895.338379
77.047836 11.351746 -344.360962 -21.521454 66.874001 182.558853 262.610565 92.915077 19.290432 106.929131 62.947205 143.227402 34.271908 43.799774 139.406906 13.239364 53.462467 -3.202538 -0.329881 10.352880 267.120728 -173.550201 -25.357092 25.697834 22.325687 -12.360982 280.491638 30.787941 36.651951 166.638580 71.602379 452.353577 451.026093 63.497742 288.269073 613.528137 128.692764 115.583046 188.970337 62.369476 79.752007 23.054796 34.341156 59.595390 -157.765060 17.783125 -81.334198 -19.884274 -10.772181 3.935124 -41.908619 -62.832283 -87.453026 -276.571899 -102.917809 -204.325089 -33.228508 -176.212372 -136.540588 -355.689056 -39.030003 162.085861 106.223946 2.476971 -33.685486 189.835251 -123.790833 -7.219072 -93.383774 -7.125000 0.000000 0.000000 17.940704 -67.355286 -38.958275 -46.126026 101.296844 13.104801 74.002632 132.667938 208.172546 -18.577114 52.491550 20.245140 9.264112 10.033918 -15.019148 -743.268555 -388.194397 -312.289917 7.125000 0.000000 0.000000 1631.812622 -51.303932 3604.195312
64.833351 6.826421 -553.578857 -75.723610 -33.987900 89.482338 187.059555 53.613689 -36.712070 -36.985321 -88.316895 -60.771385 -13.210598 14.290786 72.160133 13.214424 77.523315 71.332962 9.984567 71.609261 475.157379 -113.371239 5.619016 97.054794 249.248337 116.595688 485.214600 98.060875 86.747635 94.101494 41.277359 310.531403 188.290085 25.729702 165.607407 381.961151 69.230530 44.465744 90.988304 41.202408 55.777584 80.036766 108.675850 127.140579 43.415668 281.350769 108.644608 188.217407 75.667725 222.140701 254.082443 52.467705 0.130562 -137.600739 32.021343 -105.808884 -2.664561 -13.604019 114.005234 -214.294037 10.258368 210.606720 149.676529 4.869713 -28.958445 263.196930 -83.129181 145.179993 12.345133 -7.125000 0.000000 0.000000 202.696121 131.054031 241.638092 -12.747616 129.445389 24.503931 156.051025 255.721771 497.090729 123.221436 127.876564 25.270893 9.829737 21.151720 241.223663 696.693787 293.259613 1061.927002 7.125000 0.000000 0.000000 120.210762 -1296.339600 -1013.587402
81.546585 11.586851 -372.518585 -38.253414 24.529547 108.976807 223.055054 95.425186 2.431903 35.204201 -31.858866 -10.040598 -10.965076 4.538290 -7.335703 -17.960266 -65.824692 -110.383820 -11.466548 -34.621849 165.308746 -211.086975 -68.027878 -92.488037 -283.113770 -202.265198 -174.171066 -109.618896 -125.127220 -278.870514 -94.650909 -322.348877 -539.412048 -27.746538 -42.260967 -285.258759 -74.507774 -78.011269 -172.953506 -117.310242 -268.873779 -275.892212 -218.923752 -132.739670 -562.771606 -353.851440 -343.168396 -231.257660 -88.465469 -87.231682 -41.283360 -14.153662 2.188809 -24.446970 139.972992 -56.624565 14.276442 70.142075 343.777374 340.027588 276.609467 258.760925 272.063690 20.572342 -1.121463 548.960083 37.950535 290.882477 152.341980 -7.125000 0.000000 0.000000 660.897522 406.832123 581.727966 16.918154 136.674088 20.360506 88.950378 86.751022 64.535370 -119.684151 1.103821 -16.786526 -1.728681 -0.941842 -37.782578 248.265533 -150.632141 -515.772644 7.125000 0.000000 0.000000 1583.799561 -602.031006 -45.501198
